<svg width="67" height="27" viewBox="0 0 67 27" fill="none" xmlns="http://www.w3.org/2000/svg">
<g clip-path="url(#clip0_1_115)">
<path d="M7.22284 7.87863L7.22142 7.87865L2.58422 9.85535C0.10095 12.3386 -0.042767 16.2885 2.15272 18.9417L-0.088387 21.1827L-0.176778 21.2711L-0.0883884 21.3595L0.640486 22.0884L0.728874 22.1768L0.817263 22.0884L3.0582 19.8475C4.26736 20.8501 5.77425 21.3959 7.36444 21.3959C9.1698 21.3959 10.868 20.6925 12.1446 19.4158C13.3787 18.1819 14.0807 16.5397 14.1211 14.7928L14.1212 14.7928L14.1212 14.7899L14.125 8.00007L14.1251 7.87493L13.9999 7.875L7.22284 7.87863ZM10.0829 14.4352H8.47047L10.0498 12.8559L10.1382 12.7675L10.0498 12.6791L9.32093 11.9502L9.23254 11.8618L9.14416 11.9502L7.56482 13.5296V11.9171V11.7921H7.43982H6.40903H6.28403V11.9171V14.8104L5.37817 15.7162V11.9171V11.7921H5.25317H4.22237H4.09737V11.9171V16.997L3.06365 18.0307C1.36476 15.882 1.50671 12.7441 3.48984 10.761C4.48871 9.76216 5.81675 9.19362 7.2309 9.15944L12.8436 9.15641L12.8405 14.7701C12.806 16.184 12.2375 17.5117 11.239 18.5102C10.2039 19.5453 8.82831 20.1151 7.36444 20.1151C6.11611 20.1151 4.93226 19.7004 3.96888 18.9367L5.00295 17.9027H10.0829H10.2079V17.7777V16.7469V16.6219H10.0829H6.28382L7.18968 15.716H10.0829H10.2079V15.591V14.5602V14.4352H10.0829Z" fill="#38F2AF" stroke="#38F2AF" stroke-width="0.25"/>
</g>
<path d="M19.062 22L19.314 7.42H22.068L24.138 17.518L26.298 7.42H28.962L29.232 22H27.252L27.036 11.866L24.966 22H23.364L21.258 11.83L21.06 22H19.062ZM31.2951 22V11.596H33.7431V22H31.2951ZM31.2951 9.94V7.906H33.7431V9.94H31.2951ZM35.688 22V11.596H38.136V12.64C38.508 12.28 38.898 11.992 39.306 11.776C39.726 11.548 40.176 11.434 40.656 11.434C41.088 11.434 41.43 11.542 41.682 11.758C41.934 11.962 42.12 12.238 42.24 12.586C42.36 12.934 42.42 13.312 42.42 13.72V22H39.972V14.206C39.972 13.894 39.924 13.654 39.828 13.486C39.732 13.318 39.546 13.234 39.27 13.234C39.102 13.234 38.916 13.282 38.712 13.378C38.52 13.474 38.328 13.594 38.136 13.738V22H35.688ZM47.2193 22.126C46.5593 22.126 46.0373 22.018 45.6533 21.802C45.2813 21.586 45.0173 21.274 44.8613 20.866C44.7053 20.458 44.6273 19.972 44.6273 19.408V13.216H43.5833V11.596H44.6273V8.482H47.0933V11.596H48.6773V13.216H47.0933V19.192C47.0933 19.552 47.1713 19.81 47.3273 19.966C47.4833 20.11 47.7173 20.182 48.0293 20.182C48.1613 20.182 48.2873 20.176 48.4073 20.164C48.5393 20.152 48.6653 20.14 48.7853 20.128V22C48.5813 22.024 48.3413 22.048 48.0653 22.072C47.8013 22.108 47.5193 22.126 47.2193 22.126ZM50.2619 22V11.596H52.7099V22H50.2619ZM50.2619 9.94V7.906H52.7099V9.94H50.2619ZM55.1588 22V13.306H54.0428V11.596H55.1588V10.93C55.1588 10.306 55.2128 9.766 55.3208 9.31C55.4408 8.842 55.6808 8.482 56.0408 8.23C56.4128 7.978 56.9708 7.852 57.7148 7.852C57.9428 7.852 58.1588 7.864 58.3628 7.888C58.5668 7.9 58.7948 7.924 59.0468 7.96V9.778C58.9508 9.754 58.8368 9.736 58.7048 9.724C58.5848 9.7 58.4708 9.688 58.3628 9.688C58.0748 9.688 57.8768 9.778 57.7688 9.958C57.6608 10.138 57.6068 10.402 57.6068 10.75V11.596H59.0468V13.306H57.6068V22H55.1588ZM60.1935 24.826V23.062C60.6135 23.062 60.9555 23.038 61.2195 22.99C61.4835 22.942 61.6755 22.858 61.7955 22.738C61.9155 22.618 61.9755 22.45 61.9755 22.234C61.9755 22.078 61.9335 21.832 61.8495 21.496C61.7775 21.16 61.6935 20.794 61.5975 20.398L59.3115 11.596H61.6875L63.0375 18.454L64.2075 11.596H66.5655L64.1355 22.414C64.0035 23.026 63.7815 23.506 63.4695 23.854C63.1575 24.202 62.7675 24.448 62.2995 24.592C61.8315 24.748 61.2855 24.826 60.6615 24.826H60.1935Z" fill="#38F2AF"/>
<defs>
<clipPath id="clip0_1_115">
<rect width="14" height="14" fill="white" transform="translate(0 8)"/>
</clipPath>
</defs>
</svg>
